<?xml version="1.0" encoding="utf-8" ?>
<svg xmlns="http://www.w3.org/2000/svg" xmlns:xlink="http://www.w3.org/1999/xlink" width="302" height="251">
	<path fill="#161616" d="M221.163 6.86645C225.419 11.5026 229.492 16.3033 233.373 21.2578C236.523 25.2898 239.463 29.4787 242.641 33.4914C246.681 27.281 253.089 21.4603 259.686 18.079C261.754 17.0191 264.763 16.2079 266.476 14.6917C266.604 14.9487 266.714 15.203 266.795 15.479C267.81 18.9298 265.44 41.2452 263.828 44.1258C270.07 47.3773 272.124 58.7981 277.295 63.3438C281.602 67.1294 288.554 69.6492 293.939 71.5922C295.529 72.166 297.987 72.6769 299.31 73.5997C299.739 73.8988 299.911 74.1898 300 74.7166C300.491 77.6173 297.663 82.4133 295.956 84.64C293.577 87.7421 290.094 91.3834 286.435 92.9393C281.252 95.1438 266.171 94.43 259.485 95.3232C247.665 96.9024 237.235 102.033 230.415 111.965C227.456 116.275 225.254 120.318 221.262 123.838C213.949 130.287 207.045 132.148 200.639 140.599C200.179 141.206 199.807 141.703 199.916 142.466C200.7 142.494 201.078 142.167 201.758 141.794C201.08 142.509 200.417 142.997 200.175 143.971C200.377 144.373 200.582 144.649 200.905 144.962C200.349 144.856 200.217 144.76 199.699 145.022C199.252 145.696 198.963 146.378 198.739 147.155C197.67 150.867 197.443 155.177 197.367 159.022C197.085 173.266 200.371 186.113 207.419 198.517C214.685 191.239 219.897 185.786 222.776 175.533C225.687 165.169 224.955 152.793 219.861 143.198C218.088 139.857 215.658 136.988 213.815 133.711C217.26 131.523 220.556 129.413 223.523 126.577C224.948 128.801 226.674 130.84 228.107 133.076C232.405 139.784 235.12 147.757 236.004 155.661C237.758 171.352 233.892 186.457 223.937 198.85C216.468 208.147 205.644 214.807 194.157 217.834C182.558 220.889 170.211 220.165 158.326 220.138L105.355 220.164L88.9033 220.131C85.418 220.122 81.8744 219.956 78.4048 220.329C78.6269 214.434 78.144 208.528 78.5182 202.622C82.41 199.901 86.887 198.179 90.5153 195.035L90.5184 208.066C96.9446 207.537 103.755 207.969 110.214 207.969C116.755 207.97 123.819 207.457 130.3 208.231C125.314 201.062 120.506 190.955 117.349 182.785C117.909 180.696 118.501 178.706 119.687 176.876C121.632 176.255 123.603 175.659 125.511 174.933C132.237 172.374 138.929 167.538 141.904 160.798C144.789 154.26 144.242 146.034 141.778 139.452C140.803 136.845 139.431 134.409 138.431 131.803C142.367 135.142 146.533 137.733 149.123 142.359C152.878 139.918 157.655 138.722 161.965 137.71C163.636 133.473 165.644 129.376 168.647 125.911C170.46 123.819 172.432 121.94 174.161 119.761C172.623 124.756 170.463 129.391 169.61 134.604C166.361 154.472 180.711 169.155 191.38 183.982C188.126 170.745 186.669 156.883 190.036 143.505C190.973 139.78 192.998 136.468 194.5 132.958C198.656 123.253 197.98 113.063 195.087 103.145C196.281 104.397 197.425 105.731 198.533 107.06C203.385 112.88 205.084 119.866 204.409 127.326C208.387 123.657 213.219 121.313 216.93 117.214C220.483 113.29 222.748 108.593 225.928 104.427C228.215 101.431 231.088 99.0413 233.987 96.6678C230.611 97.0075 227.257 97.5121 223.887 97.8982C219.197 98.4356 213.091 98.3564 208.799 100.406C209.973 97.4136 211.865 94.6413 213.537 91.9078C211.72 91.5058 201.331 87.3602 200.448 86.2686C200.617 85.62 200.989 85.1777 201.442 84.7016C203.047 83.0133 204.924 81.4975 206.706 79.9947C214.849 73.1252 222.93 69.5736 233.665 69.3286C225.963 73.4274 220.893 77.4459 215.019 83.9162C220.074 84.2751 225 85.2623 230.089 85.3226C229.382 85.9228 228.663 86.3672 227.857 86.8139C226.662 87.4766 223.966 88.7094 223.585 90.0376C224.284 90.1537 224.911 89.9132 225.59 89.7699C229.092 89.0308 232.973 89.0378 236.553 88.8295L266.389 87.3686C272.121 87.116 277.93 87.1066 283.633 86.4487C286.047 86.1703 287.581 84.3805 289.009 82.5638C289.763 81.6036 291.227 79.7359 291.083 78.4995C284.604 75.3169 277.801 73.5861 272.083 68.8456C269.05 66.3309 267.479 63.0776 265.728 59.6406C261.94 52.2026 257.031 46.9355 249.304 43.5285C246.066 42.1005 242.721 40.9386 239.559 39.3386C239.938 41.0889 240.254 42.7919 240.378 44.5804C237.25 37.972 232.61 32.0551 228.058 26.3679C226.133 23.9633 223.997 21.6274 222.359 19.0213C218.124 29.1635 214.154 42.2718 221.033 52.2206C221.935 53.5261 225.728 57.0963 225.943 57.7749L225.639 57.9799C219.801 57.5797 213.802 57.869 207.947 57.8873L176.976 57.948C172.25 57.9588 167.242 58.3815 162.556 57.97C161.316 57.8611 159.928 57.6433 158.928 56.84C157.993 56.09 157.492 54.856 157.393 53.6854C157.283 52.3872 157.573 50.3922 158.541 49.4199C159.425 48.5328 161.843 48.2479 163.09 48.139C169.003 47.6221 177.008 48.0635 183.145 48.0557C192.065 48.0445 201.289 47.5629 210.171 48.2491C210.033 47.648 209.905 47.0448 209.785 46.4397C207.062 32.515 213.555 18.2071 221.163 6.86645ZM152.81 150.238C152.839 159.628 151.071 167.236 144.265 174.1C140.535 177.863 136.215 180.6 131.732 183.347C133.378 192.722 136.839 201.487 143.984 208L166.937 207.984C177.067 207.984 186.339 207.584 196.099 204.523C186 191.618 175.223 179.073 166.921 164.894C164.971 161.625 163.405 158.141 162.254 154.512C161.801 153.049 161.24 147.998 160.494 147.241C157.982 148.373 155.397 149.296 152.81 150.238ZM250.321 35.8519C251.167 36.1017 252.424 36.3045 253.069 36.9079C254.195 37.3004 256.761 38.2601 257.324 39.3772C257.352 39.432 257.375 39.4892 257.4 39.5451C258.057 38.5937 259.673 28.7763 259.472 27.2589C259.428 26.9329 259.357 26.8344 259.127 26.6186C256.581 30.0259 252.656 32.1718 250.321 35.8519Z"/>
	<path fill="#161616" d="M138.967 86.6264C145.19 86.8366 151.449 86.7345 157.675 86.702C163.404 86.6721 169.163 86.7491 174.879 86.3191C172.339 89.1159 168.859 91.3558 165.844 93.6317C159.956 98.0763 154.542 102.62 149.896 108.403C140.516 120.079 135.278 133.926 128.301 146.994C124.026 155 118.552 162.822 112.509 169.592C106.14 176.727 98.9556 183.384 91.0786 188.831C87.1656 191.537 82.5535 193.728 79.0183 196.894C79.8172 193.653 82.1177 184.922 83.7925 182.562C85.416 180.275 91.4723 176.614 94.147 174.307C97.5162 171.401 100.585 167.988 103.445 164.585C116.748 148.756 125.59 129.339 135.823 111.484C129.478 115.343 121.418 117.346 114.408 119.796C100.793 124.556 87.2621 130.322 75.4587 138.709C72.0139 141.157 65.3265 145.828 63.0613 149.24C60.3489 153.326 59.4704 162.149 58.6142 167.199C62.7417 165.209 67.3564 163.934 71.6565 162.328C71.143 163.631 70.483 164.837 69.8157 166.065C68.2934 166.273 67.1319 167.358 65.9636 168.284C64.05 168.342 57.1719 171.305 55.8229 172.472C55.7846 172.505 55.7477 172.539 55.7101 172.573C53.1737 170.78 58.3044 156.966 57.2428 154.43C56.5707 154.449 56.3324 155.303 55.5862 155.393C54.9976 154.415 54.3575 146.019 54.6748 144.574C55.1678 142.329 59.7614 139.142 61.5499 137.667C75.4703 126.187 90.8229 118.476 107.73 112.371C119.088 108.269 130.903 104.903 141.724 99.4851C144.949 97.8708 147.979 95.957 151.033 94.0476C147.968 91.1644 142.748 88.5431 138.967 86.6264Z"/>
	<path fill="#161616" d="M82.8262 28.826C86.316 28.4922 89.9987 28.6809 93.5079 28.6768L112.664 28.6922L135.553 28.6746C143.114 28.6745 150.73 28.5544 158.202 29.9046C165.892 31.2403 173.259 34.0235 179.91 38.1063C181.579 39.1135 185.449 41.208 185.931 43.1751C185.223 43.6185 181.632 43.0884 180.523 43.0999C175.16 43.1556 169.492 43.6689 164.162 43.1643C159.122 42.6872 154.298 41.2709 149.198 41.033C141.214 40.6606 133.177 40.8345 125.188 40.8636C113.642 40.9343 101.935 41.3449 90.4025 40.8916C90.6436 44.663 90.5129 48.515 90.5136 52.2951L90.507 71.9101L90.5058 84.0213C90.5023 86.5464 90.6962 89.2905 90.216 91.7733C89.8097 93.8735 80.8233 98.5511 78.5063 100.13C78.2438 86.1363 78.4318 72.1134 78.4043 58.116C78.3893 50.4659 77.8413 40.9593 78.4662 33.5376C78.5539 32.4958 78.7575 31.4942 79.3891 30.6334C80.2761 29.4245 81.4054 29.067 82.8262 28.826Z"/>
	<path fill="#A0A0A0" d="M78.1313 179.863C76.7767 184.833 74.2186 195.489 71.5435 199.42C70.8692 200.411 70.0414 201.064 69.003 201.652C65.2329 203.787 60.7265 205.205 56.5948 206.492C39.5516 211.8 21.8892 213.071 4.5711 208.177C3.52551 207.882 1.88878 207.566 1.33315 206.583C3.35228 204.598 6.03392 203.098 8.32849 201.431C11.8053 198.904 15.2544 195.936 18.2034 192.81C26.435 184.084 31.9937 173.331 38.5669 163.388C41.7706 158.542 45.5244 154.23 48.9453 149.566C49.5679 152.879 50.6205 160.729 49.8778 163.839C49.4791 165.508 36.177 185.929 34.1179 188.936C31.0095 193.476 27.0082 197.205 23.7298 201.578C37.3922 201.184 47.7985 199.905 60.4857 194.473C63.4761 193.193 66.5627 192.012 68.8321 189.586C70.171 188.154 71.3748 186.271 72.3128 184.55C68.0956 185.742 63.3368 186.332 58.9932 186.922C58.8597 186.835 58.7304 186.811 58.7026 186.645C58.5795 185.908 65.1011 170.075 65.9636 168.284C67.1319 167.358 68.2934 166.273 69.8157 166.065C68.8859 170.038 67.4457 173.892 65.8862 177.658C65.3929 178.849 64.0498 181.109 64.1153 182.316C65.4401 183.006 75.7348 180.616 77.696 180.004C77.8416 179.958 77.9867 179.911 78.1313 179.863Z"/>
	<path fill="#161616" d="M145.496 67.1255L176.148 67.0968C181.875 67.0995 187.832 67.4404 193.529 66.8494C190.936 70.1672 187.354 73.0483 184.282 75.9239C183.457 76.6352 182.694 76.8086 181.624 76.9269C176.484 77.4954 170.366 77.0042 165.116 77.0247L151.237 77.078C148.514 77.0875 145.709 77.2261 142.998 76.9898C141.971 76.9003 140.664 76.7499 139.848 76.064C138.9 75.2674 138.313 73.7833 138.243 72.5722C138.169 71.3109 138.481 69.7776 139.372 68.8381C141.092 67.0248 143.184 67.1813 145.496 67.1255Z"/>
	<path fill="#A0A0A0" d="M210.049 135.697C213.506 140.01 221.299 148.681 220.689 154.5C220.009 160.981 214.84 167.94 210.94 173.034C209.403 175.041 207.606 177.029 206.367 179.233C204.492 175.615 201.842 168.447 203.16 164.411C204.49 160.339 210.126 155.931 207.974 151.42C206.621 148.583 203.658 146.295 200.905 144.962C200.582 144.649 200.377 144.373 200.175 143.971C200.417 142.997 201.08 142.509 201.758 141.794C204.598 139.897 207.571 138.063 210.049 135.697Z"/>
	<path fill="#161616" d="M105.29 67.1026C109.223 67.007 113.161 67.0627 117.094 67.0574C119.43 67.0543 121.925 66.8555 124.239 67.1683C125.415 67.3273 126.606 67.6289 127.529 68.4119C128.478 69.2175 128.966 70.3537 129.046 71.5841C129.142 73.0673 128.646 74.5281 127.665 75.6453C126.624 76.8208 125.481 76.8998 123.987 77.0073C119.901 77.1071 115.804 77.0761 111.716 77.0929C109.297 77.1029 106.588 77.3339 104.209 76.9333C103.011 76.7317 101.826 76.2841 100.876 75.5151C100.072 74.8647 99.4178 73.9461 99.3367 72.8881C99.2209 71.3775 100.076 69.6131 101.045 68.498C102.111 67.2705 103.79 67.2326 105.29 67.1026Z"/>
	<path fill="#A0A0A0" d="M90.1573 99.4254L90.4893 99.7683C91.1855 101.517 90.6334 111.04 90.4245 113.391C86.6858 115.731 82.3955 116.983 78.9012 119.779C77.5711 117.737 78.2207 109.649 78.5775 107.08C81.1761 104.191 86.7663 101.684 90.1573 99.4254Z"/>
	<path fill="#D1D1D1" d="M220.341 99.1455C221.618 99.0224 223.189 98.7174 224.452 98.9387C225.124 99.0566 225.382 99.2839 225.764 99.8075C225.908 101.457 224.536 103.008 223.667 104.314C220.281 106.108 216.403 107.447 212.856 108.936C211.436 109.522 210.048 110.347 208.681 111.054C209.98 108.162 211.5 104.78 213.497 102.321C215.469 99.8909 217.397 99.4234 220.341 99.1455Z"/>
	<path fill="#A0A0A0" d="M241.788 60.5257C246.727 60.7456 251.544 59.9178 256.008 62.5912C257.518 63.4952 261.088 66.3565 261.417 67.9626C261.458 68.1601 261.171 68.4694 261.057 68.6408C255.267 66.3642 248.662 68.7912 243.638 63.6247C242.836 62.7996 241.776 61.7473 241.788 60.5257Z"/>
	<path fill="#161616" d="M223.005 25.3491C223.084 25.4019 223.222 25.4892 223.299 25.5584C225.673 27.6949 233.242 40.2906 233.518 42.9875C233.541 43.209 233.334 43.3579 233.195 43.5239C231.704 42.5877 230.009 41.8842 228.451 41.0561C225.844 39.6702 223.778 37.9451 222.916 35.0097C222.21 32.605 221.78 27.5717 223.005 25.3491Z"/>
</svg>
